HIERARCHY
ROOT Hips
{
    OFFSET 0.000000 0.000000 0.000000
    CHANNELS 6 Xposition Yposition Zposition Zrotation Xrotation Yrotation
    JOINT Chest
    {
        OFFSET -0.000000 0.078597 0.000000
        CHANNELS 3 Zrotation Xrotation Yrotation
        JOINT Chest2
        {
            OFFSET -0.000000 0.230468 0.000000
            CHANNELS 3 Zrotation Xrotation Yrotation
            JOINT Neck
            {
                OFFSET -0.000000 0.249638 0.000000
                CHANNELS 3 Zrotation Xrotation Yrotation
                JOINT Head
                {
                    OFFSET -0.000000 0.103998 0.019170
                    CHANNELS 3 Zrotation Xrotation Yrotation
                    End Site
                    {
                        OFFSET -0.000000 0.191701 0.000000
                    }
                }
            }
            JOINT LeftCollar
            {
                OFFSET 0.038274 0.205938 -0.001496
                CHANNELS 3 Zrotation Xrotation Yrotation
                JOINT LeftShoulder
                {
                    OFFSET 0.132388 0.000000 0.000000
                    CHANNELS 3 Zrotation Xrotation Yrotation
                    JOINT LeftElbow
                    {
                        OFFSET 0.250301 0.000000 0.000000
                        CHANNELS 3 Zrotation Xrotation Yrotation
                        JOINT LeftWrist
                        {
                            OFFSET 0.285291 0.000000 0.000000
                            CHANNELS 3 Zrotation Xrotation Yrotation
                            End Site
                            {
                                OFFSET 0.000000 -0.143776 0.000000
                            }
                        }
                    }
                }
            }
            JOINT RightCollar
            {
                OFFSET -0.038406 0.205938 -0.001496
                CHANNELS 3 Zrotation Xrotation Yrotation
                JOINT RightShoulder
                {
                    OFFSET -0.132388 0.000000 0.000000
                    CHANNELS 3 Zrotation Xrotation Yrotation
                    JOINT RightElbow
                    {
                        OFFSET -0.250301 0.000000 0.000000
                        CHANNELS 3 Zrotation Xrotation Yrotation
                        JOINT RightWrist
                        {
                            OFFSET -0.285291 0.000000 0.000000
                            CHANNELS 3 Zrotation Xrotation Yrotation
                            End Site
                            {
                                OFFSET -0.000000 -0.143776 0.000000
                            }
                        }
                    }
                }
            }
        }
    }
    JOINT LeftHip
    {
        OFFSET 0.095851 0.000000 0.000000
        CHANNELS 3 Zrotation Xrotation Yrotation
        JOINT LeftKnee
        {
            OFFSET -0.000000 -0.406444 0.000000
            CHANNELS 3 Zrotation Xrotation Yrotation
            JOINT LeftAnkle
            {
                OFFSET -0.000000 -0.408443 0.000000
                CHANNELS 3 Zrotation Xrotation Yrotation
                JOINT LeftToe
                {
                    OFFSET -0.000000 -0.062303 0.143776
                    CHANNELS 3 Zrotation Xrotation Yrotation
                    End Site
                    {
                        OFFSET -0.000000 0.000000 0.038340
                    }
                }
            }
        }
    }
    JOINT RightHip
    {
        OFFSET -0.095851 0.000000 0.000000
        CHANNELS 3 Zrotation Xrotation Yrotation
        JOINT RightKnee
        {
            OFFSET -0.000000 -0.406444 0.000000
            CHANNELS 3 Zrotation Xrotation Yrotation
            JOINT RightAnkle
            {
                OFFSET -0.000000 -0.408443 0.000000
                CHANNELS 3 Zrotation Xrotation Yrotation
                JOINT RightToe
                {
                    OFFSET -0.000000 -0.062303 0.143776
                    CHANNELS 3 Zrotation Xrotation Yrotation
                    End Site
                    {
                        OFFSET -0.000000 0.000000 0.038340
                    }
                }
            }
        }
    }
}
MOTION
Frames:    8
Frame Time:    0.016667
-0.019612    0.888202    0.147446    -0.173228    2.073472    -175.621094    -0.178538    -3.185986    0.299339    -1.886509    2.278727    0.139053    0.550676    4.242212    -1.062313    -3.310901    1.878563    -0.523015    12.951528    -0.608887    -2.623169    -8.151579    -2.522864    -9.127104    -0.368932    -6.583623    0.881193    96.063660    -3.160864    6.748266    -10.535234    0.309267    1.996647    13.841475    -10.733234    1.309468    -2.883120    -7.823535    -1.351534    -85.503647    2.915923    -7.971723    4.974576    8.564145    0.274577    -0.795093    -2.929580    -1.568513    -4.922537    -6.875528    13.140955    0.000000    0.000000    0.000000    -5.744501    9.928059    4.972828    0.995738    -9.489874    3.444699    4.485235    -2.130855    -16.178896    0.000000    0.000000    0.000000    
-0.019612    0.888202    0.147446    -0.173228    2.073472    -175.621094    -0.178538    -3.185986    0.299339    -1.886509    2.278727    0.139053    0.550676    4.242212    -1.062313    -3.310901    1.878563    -0.523015    12.951528    -0.608887    -2.623169    -8.151579    -2.522864    -9.127104    -0.368932    -6.583623    0.881193    96.063660    -3.160864    6.748266    -10.535234    0.309267    1.996647    13.841475    -10.733234    1.309468    -2.883120    -7.823535    -1.351534    -85.503647    2.915923    -7.971723    4.974576    8.564145    0.274577    -0.795093    -2.929580    -1.568513    -4.922537    -6.875528    13.140955    0.000000    0.000000    0.000000    -5.744501    9.928059    4.972828    0.995738    -9.489874    3.444699    4.485235    -2.130855    -16.178896    0.000000    0.000000    0.000000    
-0.019612    0.888202    0.147446    -0.173228    2.073472    -175.621094    -0.178538    -3.185986    0.299339    -1.886509    2.278727    0.139053    0.550676    4.242212    -1.062313    -3.310901    1.878563    -0.523015    12.951528    -0.608887    -2.623169    -8.151579    -2.522864    -9.127104    -0.368932    -6.583623    0.881193    96.063660    -3.160864    6.748266    -10.535234    0.309267    1.996647    13.841475    -10.733234    1.309468    -2.883120    -7.823535    -1.351534    -85.503647    2.915923    -7.971723    4.974576    8.564145    0.274577    -0.795093    -2.929580    -1.568513    -4.922537    -6.875528    13.140955    0.000000    0.000000    0.000000    -5.744501    9.928059    4.972828    0.995738    -9.489874    3.444699    4.485235    -2.130855    -16.178896    0.000000    0.000000    0.000000    
-0.019612    0.888202    0.147446    -0.173228    2.073472    -175.621094    -0.178538    -3.185986    0.299339    -1.886509    2.278727    0.139053    0.550676    4.242212    -1.062313    -3.310901    1.878563    -0.523015    12.951528    -0.608887    -2.623169    -8.151579    -2.522864    -9.127104    -0.368932    -6.583623    0.881193    96.063660    -3.160864    6.748266    -10.535234    0.309267    1.996647    13.841475    -10.733234    1.309468    -2.883120    -7.823535    -1.351534    -85.503647    2.915923    -7.971723    4.974576    8.564145    0.274577    -0.795093    -2.929580    -1.568513    -4.922537    -6.875528    13.140955    0.000000    0.000000    0.000000    -5.744501    9.928059    4.972828    0.995738    -9.489874    3.444699    4.485235    -2.130855    -16.178896    0.000000    0.000000    0.000000    
-0.019612    0.888202    0.147446    -0.173228    2.073472    -175.621094    -0.178538    -3.185986    0.299339    -1.886509    2.278727    0.139053    0.550676    4.242212    -1.062313    -3.310901    1.878563    -0.523015    12.951528    -0.608887    -2.623169    -8.151579    -2.522864    -9.127104    -0.368932    -6.583623    0.881193    96.063660    -3.160864    6.748266    -10.535234    0.309267    1.996647    13.841475    -10.733234    1.309468    -2.883120    -7.823535    -1.351534    -85.503647    2.915923    -7.971723    4.974576    8.564145    0.274577    -0.795093    -2.929580    -1.568513    -4.922537    -6.875528    13.140955    0.000000    0.000000    0.000000    -5.744501    9.928059    4.972828    0.995738    -9.489874    3.444699    4.485235    -2.130855    -16.178896    0.000000    0.000000    0.000000    
-0.020030    0.888312    0.147983    -0.207964    2.053926    -175.598312    -0.117120    -3.176146    0.254019    -1.843666    2.360641    0.124182    0.163449    4.670535    -1.044580    -3.084891    1.952030    -0.601068    12.869407    -0.671385    -2.571219    -8.252660    -3.083872    -9.093024    -0.749931    -6.264820    0.923191    95.938850    -3.144338    6.421963    -10.534808    0.275909    1.937371    15.142442    -6.955664    1.626108    -5.361784    -9.377544    -1.834874    -85.496277    3.080558    -9.583477    4.880517    8.506776    0.259316    -0.702839    -2.961936    -1.087755    -4.928327    -6.811041    12.592145    0.000000    0.000000    0.000000    -5.779121    9.901223    4.850442    0.966650    -9.521605    3.485719    4.320441    -2.128250    -16.091675    0.000000    0.000000    0.000000    
-0.019884    0.888180    0.148208    -0.208945    2.018373    -175.595200    -0.149568    -3.171465    0.250833    -1.784261    2.336330    0.121498    0.136951    4.752265    -1.064071    -3.128616    2.017808    -0.617703    12.829348    -0.655890    -2.582577    -8.257174    -3.115806    -9.055985    -0.810123    -6.179419    0.922155    96.136665    -3.236842    6.346498    -10.531666    0.263661    1.943858    15.002009    -7.354952    1.548388    -5.050716    -9.134825    -1.781488    -85.629318    2.999551    -9.326897    4.886969    8.458954    0.311576    -0.739806    -2.967595    -0.907035    -4.965147    -6.827509    12.470762    0.000000    0.000000    0.000000    -5.756569    9.806067    4.455575    1.006912    -9.419814    3.865894    4.254882    -2.200790    -16.056973    0.000000    0.000000    0.000000    
-0.019884    0.888180    0.148208    -0.208945    2.018373    -175.595200    -0.149568    -3.171465    0.250833    -1.784261    2.336330    0.121498    0.136951    4.752265    -1.064071    -3.128616    2.017808    -0.617703    12.829348    -0.655890    -2.582577    -8.257174    -3.115806    -9.055985    -0.810123    -6.179419    0.922155    96.136665    -3.236842    6.346498    -10.531666    0.263661    1.943858    15.002009    -7.354952    1.548388    -5.050716    -9.134825    -1.781488    -85.629318    2.999551    -9.326897    4.886969    8.458954    0.311576    -0.739806    -2.967595    -0.907035    -4.965147    -6.827509    12.470762    0.000000    0.000000    0.000000    -5.756569    9.806067    4.455575    1.006912    -9.419814    3.865894    4.254882    -2.200790    -16.056973    0.000000    0.000000    0.000000    
